<?xml version="1.0" standalone="no"?>
<!DOCTYPE svg PUBLIC "-//W3C//DTD SVG 1.1//EN" "http://www.w3.org/Graphics/SVG/1.1/DTD/svg11.dtd">
<svg xmlns="http://www.w3.org/2000/svg">
<metadata>Copyright (C) 2017 by original authors @ fontello.com</metadata>
<defs>
<font id="fontello" horiz-adv-x="1000" >
<font-face font-family="fontello" font-weight="400" font-stretch="normal" units-per-em="1000" ascent="850" descent="-150" />
<missing-glyph horiz-adv-x="1000" />
<glyph glyph-name="text-icon_1" unicode="&#xe800;" d="M0 600h83s0 167 84 167h250v-750s0-84-84-84h-83v-83h500v83h-83c-84 0-84 84-84 84v750h250c84 0 84-167 84-167h83v250h-1000z m1083 250h667v-70h-667z m0-232h434v-71h-434z m0-233h434v-70h-434z m0-232h667v-71h-667z m0-233h434v-70h-434z" horiz-adv-x="1750" />

<glyph glyph-name="add-to-pass-icon-" unicode="&#xe801;" d="M545 850a165 165 0 0 0-141-77 165 165 0 0 0-140 77h-264v-1000h263a167 167 0 0 0 282 0h263v1000z m224-38v-924h-204a207 207 0 0 1-322 0h-205v924h205a203 203 0 0 1 160-77 203 203 0 0 1 162 77z m-615-193h38v-38h-38z m-77 0h38v-38h-38z m154 0h38v-38h-38z m77 0h38v-38h-38z m77 0h38v-38h-38z m77 0h38v-38h-38z m76 0h39v-38h-39z m77 0h39v-38h-39z m77 0h39v-38h-39z m-461-318h106v107h-106z m13 93h80v-79h-80z m13-13h54v-53h-54z m-26-319h106v106h-106z m13 93h80v-80h-80z m13-14h54v-53h-54z m320 267h-107v-107h107z m-13-93h-80v79h80z m-67 66h53v-53h-53z m-266-120h53v-26h-27v-14h27v-40h107v14h-14v40h14v13h-27v-53h-40v53h-13v-53h-14v93h-13v-13h-53v-14z m120-93h13v-53h-13z m-120 13h26v14h-13v26h-13v-40z m120-119h80v13h-67v13h27v14h-40v-40z m-27 213v-14h13v-40h14v40h66v-13h-13v-13h40v-27h-27v-13h93v13h-53v27h27v13h-53v67h26v13h-93v66h93v14h-106v-107h13v14h53v-40h-93z m80 93v13h-27v-40h80v40h-13v-26h-53v13h13z m106-306h67v93h-13v-27h-27v27h-13v-67h13v27h27v-40h-54v-13z m-66 13h53v-13h-53z m53 93h-13v-13h-27v-14h27v-13h13v40z m0-53h-53v53h13v13h-53v-13h27v-13h-27v-14h27v-26h-27v-13h53v-14h13v14h27v13z m80 173h-40v-13h27v-40h-27v-14h27v-53h13v120z m-200-133h14v-40h-14z m67 133h53v-13h-53z m106-27h-53v-40h13v27h40v13z m-26-53h13v-40h-13z" horiz-adv-x="808" />

<glyph glyph-name="call-to-action-button" unicode="&#xe802;" d="M52 73v725h1365v-609l52-46v707h-1469v-829h1292l-11 52h-1229z m1204 228l94-431 56 139 92-159 31 18-92 158 148-19z" horiz-adv-x="1585" />

<glyph glyph-name="campaign-validity" unicode="&#xe803;" d="M356 754c0-53-34-97-77-97s-78 44-78 97 35 96 78 96 77-43 77-96m110-492h38a11 11 0 0 1 11 11v84a11 11 0 0 1-11 11h-38a11 11 0 0 1-11-11v-84a11 11 0 0 1 10-11m272 0h39a11 11 0 0 1 10 11v84a11 11 0 0 1-10 11h-39a11 11 0 0 1-10-11v-84a11 11 0 0 1 10-11m84 65h-13v-54a32 32 0 0 0-32-32h-39a32 32 0 0 0-32 32v54h-169v-54a32 32 0 0 0-32-32h-38a32 32 0 0 0-32 32v54h-14a62 62 0 0 1-61-61v-346a62 62 0 0 1 61-61h401a62 62 0 0 1 62 61v346a61 61 0 0 1-62 61m23-407a23 23 0 0 0-23-22h-401a23 23 0 0 0-22 22v232h446z m-413 191h103v-38h-103z m135 0h102v-38h-102z m134 0h103v-38h-103z m-269-65h103v-38h-103z m135 0h102v-38h-102z m134 0h103v-38h-103z m-269-65h103v-38h-103z m135 0h102v-38h-102z m134 0h103v-38h-103z m-422 406l1 0-1 1 0-1z m274 131l-3 2-9 7-19 14-37 28-75 55a50 50 0 0 1-25 9 11 11 0 0 1-2 0c-12 2-25 3-38 4v-1l34-28-41-20 18-32-77-170v-1 1-1 1l-77 170 19 32-40 20 34 28v2c-13-2-26-2-38-4a13 13 0 0 1-4-1 52 52 0 0 1-34-17l-132-141-6-56 1-2 1-2 3-6 5-10 11-22 22-43 44-86c19 10 39 20 58 31 0-18 0-36-1-54v-3h11l11-372h106c4 108 2 299 0 372h11l12-372h69a89 89 0 0 0-34 70v346a89 89 0 0 0 46 78c3-5 6-9 9-14l155 103 5 3z m-405-156l-12 22-24 41-7 12 47 58q-2-66-4-133m196 70l-9 13 73 41c0 9-1 18-1 27l20-18 10-8z m-49 213l10-36-26-22-25 22 10 36h31z m3-41l11-216-30-22-29 22 11 216h37z" horiz-adv-x="883" />

<glyph glyph-name="header-icon" unicode="&#xe804;" d="M860 642h-584v-584h584z m-22-565h-539v143h119l61 40 69-46 136 133 154-95z m0 201l-158 97-134-133-68 44-67-44h-113v374h539z m-427 78a67 67 0 1 1-68 67 67 67 0 0 1 68-67z m0 111a44 44 0 1 0-45-44 45 45 0 0 0 45 44z m-411-617h2667v1000h-2667z m111 889h2445v-778h-2445z m937-192h1338m-1338-131h1338m-1338-131h1338m-1338-132h1338" horiz-adv-x="2667" />

<glyph glyph-name="heading-icon" unicode="&#xe805;" d="M0-112c59 7 96 7 111 23s22 55 22 121v654q0 81-25 106c-16 16-52 16-108 20v38h419v-38c-55-4-91-4-108-20s-25-52-25-106v-294h459v294q0 81-24 106c-16 16-52 16-108 20v38h419v-38c-56-4-92-4-108-20s-25-52-25-106v-672q0-82 25-106c16-15 52-15 108-20v-38h-419v38c59 6 96 7 111 22s21 56 21 122v293h-459v-311q0-82 25-106c17-16 53-15 108-20v-38h-419z m1104 909h596v-63h-596z m0-208h387v-63h-387z m0-208h387v-62h-387z m0-207h596v-63h-596z m0-208h387v-63h-387z" horiz-adv-x="1700" />

<glyph glyph-name="html-icon" unicode="&#xe806;" d="M1000 850h-1000v-1000h1000z m-42-955h-916v728h916z m0 773h-916v137h916z m-708 91h42v-45h-42z m-83 0h41v-45h-41z m-84 0h42v-45h-42z m139-676l185 176-185 176-27-34 148-142-148-142 27-34z m195 40h291v-46h-291z" horiz-adv-x="1000" />

<glyph glyph-name="regeenerate-icon(1)" unicode="&#xe807;" d="M1199 632l-103-168a500 500 0 0 1-961 44l47-16a450 450 0 0 0 868-56l-180 131-30-40 243-177 159 255z m-798-458l-243 176-158-255 42-26 104 167a500 500 0 0 1 961-43l-48 16a450 450 0 0 0-867 55l180-131z" horiz-adv-x="1242" />

<glyph glyph-name="regeenerate-icon" unicode="&#xe808;" d="M1199 632l-103-168a500 500 0 0 1-961 44l47-16a450 450 0 0 0 868-56l-180 131-30-40 243-177 159 255z m-798-458l-243 176-158-255 42-26 104 167a500 500 0 0 1 961-43l-48 16a450 450 0 0 0-867 55l180-131z" horiz-adv-x="1242" />

<glyph glyph-name="social-icon" unicode="&#xe809;" d="M500 850a500 500 0 1 1 500-500 500 500 0 0 1-500 500z m0-960a460 460 0 1 0 460 460 461 461 0 0 0-460-460z m20 760h-40v-280h-280v-40h280v-280h40v280h280v40h-280v280z" horiz-adv-x="1000" />

<glyph glyph-name="footer" unicode="&#xe80a;" d="M282 350h2105m-2387-500h2667v1000h-2667z m111 889h2445v-778h-2445z" horiz-adv-x="2667" />

<glyph glyph-name="call-to-action" unicode="&#xe80b;" d="M256 381a85 85 0 0 0-36-6c-38 0-66 24-66 68 0 42 29 70 70 70a73 73 0 0 0 32-5l-4-15a61 61 0 0 1-27 6c-32 0-52-20-52-55 0-33 18-54 51-54a70 70 0 0 1 28 5z m92 19a162 162 0 0 1 2-23h-16l-2 12h0a36 36 0 0 0-30-14 28 28 0 0 0-29 28c0 23 20 36 58 35v2a20 20 0 0 1-22 22 46 46 0 0 1-26-7l-4 12a62 62 0 0 0 32 8c30 0 37-20 37-39z m-17 26c-19 0-40-3-40-21a15 15 0 0 1 15-17 24 24 0 0 1 24 16 20 20 0 0 1 1 5z m50 92h18v-141h-18z m52 0h18v-141h-18z m120-21v-24h26v-13h-26v-52c0-12 4-19 14-19a33 33 0 0 1 10 2l1-14a48 48 0 0 0-16-2 25 25 0 0 0-19 7 38 38 0 0 0-7 26v52h-15v14h15v17z m136-71c0-35-25-51-48-51-25 0-46 19-46 50 0 31 22 51 48 51s46-21 46-50z m-76-1c0-21 12-37 29-37s29 16 29 38c0 16-8 37-29 37s-29-20-29-38z m173-6l-14-42h-18l46 134h20l46-134h-18l-15 42z m44 14l-13 39c-3 8-5 16-7 24-2-8-4-16-7-24l-13-39z m126-53a68 68 0 0 0-27-5c-29 0-48 20-48 49a49 49 0 0 0 52 51 55 55 0 0 0 24-5l-4-13a43 43 0 0 1-21 4c-22 0-34-16-34-36 0-22 15-36 34-36a50 50 0 0 1 21 5z m50 117v-24h25v-13h-25v-52c0-12 3-19 13-19a33 33 0 0 1 10 2l1-14a48 48 0 0 0-16-2 25 25 0 0 0-19 7 38 38 0 0 0-7 26v52h-14v14h14v17z m68 4a10 10 0 0 0-11-11 10 10 0 0 0-10 11 11 11 0 0 0 11 10 11 11 0 0 0 10-10z m-19-124v97h17v-97z m139 49c0-35-25-51-48-51-26 0-46 19-46 50 0 31 21 51 48 51s46-21 46-50z m-76-1c0-21 12-37 29-37s29 16 29 38c0 15-8 36-29 36s-29-19-29-37z m103 22c0 11 0 18-1 26h16l1-15a36 36 0 0 0 32 17c13 0 34-8 34-41v-57h-17v56c0 15-6 28-23 28a26 26 0 0 1-24-26v-58h-18z m-1169-374v725h1365v-609l52-46v707h-1469v-829h1292l-11 52h-1229z m1204 228l94-431 56 139 92-159 31 18-92 158 148-19z" horiz-adv-x="1585" />

<glyph glyph-name="text-line" unicode="&#xe80c;" d="M0-91h940v-59h-940z m235 882h177v-529s0-58-58-58h-59v-59h353v59h-59c-59 0-59 58-59 58v529h176c59 0 59-117 59-117h58v176h-706v-177h59s1 118 59 118z" horiz-adv-x="940" />

<glyph glyph-name="planned-reach" unicode="&#xe80d;" d="M627 802c-142 64-262 69-389-16-98-65-132-226-131-246s23-49-40-91-71-32-66-61c4-20 26-32 35-42s16-24 4-38c-7-8-25-11-14-35 9-21 39-23 49-25 4-1-27 4-41-1-9-5-20-21-13-32s22-15 27-18 3-21 3-26c2-21-12-40-21-60-9-21 6-64 52-74a649 649 0 0 1 99-12c60-6 107-96 112-170 26-4 103-5 130-5a531 531 0 0 1 247 62c-38 215 80 235 142 444 25 84 62 334-185 446m-126-412l-9-7-30 27a180 180 0 0 0-25-8l0-38-12-1-28-4-11-2-12 40a178 178 0 0 0-25 4l-20-32-10 4-27 11-10 4 10 40a171 171 0 0 0-21 17l-32-18-7 9-18 22-7 9 28 29a165 165 0 0 0-10 26l-36 0-1 12-4 28-2 11 38 11a171 171 0 0 0 5 27l-31 19 4 10 11 26 4 11 40-10a175 175 0 0 0 17 20l-18 33 9 7 23 17 9 7 29-28a175 175 0 0 0 25 9l1 37 11 2 28 4 11 1 12-39a177 177 0 0 0 25-5l20 33 10-5 26-10 11-5-9-39a175 175 0 0 0 20-17l32 18 7-9 18-23 7-8-27-29a170 170 0 0 0 9-26l36-1 2-11 3-28 2-11-38-11a169 169 0 0 0-5-27l31-19-4-10-11-27-4-10-39 9a174 174 0 0 0-18-20l18-33-9-7z m227-51l-25-3a75 75 0 0 0-10-28 6 6 0 0 0 1-1l16-20a8 8 0 0 0-2-11l-26-20a8 8 0 0 0-11 1l-15 20a75 75 0 0 0-17-5 76 76 0 0 0-12 0 7 7 0 0 0 0-1l-9-24a8 8 0 0 0-11-4l-30 13a8 8 0 0 0-4 10l9 23a76 76 0 0 0-19 22 7 7 0 0 0-1 0l-26-3a8 8 0 0 0-8 6l-4 33a8 8 0 0 0 6 9l25 3a74 74 0 0 0 10 27 7 7 0 0 0-1 1l-16 20a8 8 0 0 0 2 11l26 20a8 8 0 0 0 11-2l15-19a74 74 0 0 0 17 5 78 78 0 0 0 11 0 8 8 0 0 0 0 1l10 23a8 8 0 0 0 10 5l31-13a8 8 0 0 0 4-10l-9-23a76 76 0 0 0 19-22 6 6 0 0 0 1 0l25 3a8 8 0 0 0 8-7l5-32a8 8 0 0 0-7-9m-134 4a36 36 0 1 0 41-31 36 36 0 0 0-41 31m-201 365a141 141 0 1 1 141-140 141 141 0 0 1-141 140m0-204a63 63 0 1 0 63 63 63 63 0 0 0-63-63" horiz-adv-x="830" />

<glyph glyph-name="advanced-text-editor" unicode="&#xe80e;" d="M270 440h38s0 77 38 77h116v-346s0-39-39-39h-38v-38h231v38h-39c-38 0-38 39-38 39v346h116c38 0 38-77 38-77h38v115h-461v-115z m651-128h79v76h-78c-5 48-18 96-38 139l69 40-39 66-68-40c-28 40-62 74-101 102l39 68-66 39-41-68c-44 20-91 33-139 38v78h-76v-78c-48-5-95-18-139-38l-39 68-67-38 40-68c-40-29-74-62-102-102l-68 40-38-67 68-39c-21-44-33-91-37-139h-80v-77h79c4-48 17-95 37-139l-68-39 38-67 69 40c28-40 62-74 101-102l-39-68 66-39 40 69c43-21 90-33 138-37v-79h77v78c48 5 95 17 139 37l40-68 66 38-40 69c40 28 74 62 102 101l68-39 39 66-69 40c21 44 33 91 38 139z m-421-346c-213 0-384 172-384 384s172 384 384 384c213 0 384-172 384-384s-172-384-384-384z" horiz-adv-x="1000" />

<glyph glyph-name="trigger" unicode="&#xe80f;" d="M549 788v-31a410 410 0 0 0 358-357h31a442 442 0 0 1-389 388m358-487a410 410 0 0 0-358-358v-31a442 442 0 0 1 389 389z m-845 98h31a410 410 0 0 0 358 358v31a442 442 0 0 1-389-389m148-339a407 407 0 0 0-117 241h-31a442 442 0 0 1 389-389v31a407 407 0 0 0-241 117m351 290a61 61 0 1 0-61 61 61 61 0 0 0 61-61m-61 131a131 131 0 1 1 131-131 131 131 0 0 1-131 131m0-225a94 94 0 1 0 94 94 94 94 0 0 0-94-94m-18 594h36v-337h-36z m0-663h36v-337h-36z m-482 181h337v-36h-337z m663 0h337v-36h-337z m-116 262v-33a253 253 0 0 0 200-197h32a284 284 0 0 1-232 230m-326-230h32a253 253 0 0 0 195 197v32a284 284 0 0 1-227-229m32-99h-32a284 284 0 0 1 227-230v32a253 253 0 0 0-195 198m494 0a253 253 0 0 0-200-199v-32a284 284 0 0 1 232 231z m-186 49a61 61 0 1 0-61 61 61 61 0 0 0 61-61m0 0a61 61 0 1 0-61 61 61 61 0 0 0 61-61" horiz-adv-x="1000" />

<glyph glyph-name="image" unicode="&#xe810;" d="M0 850v-1000h1000v1000h-1000z m38-968v245h205l103 69 120-80 231 229 264-163 1-300h-924z m654 511l-231-228-115 76-115-76h-193v641h923v-579l-269 166z m-464 195c-62 0-112-51-112-113 0-64 52-115 115-114 63 1 113 52 113 115s-53 114-116 112z m1-189c-41 1-75 35-75 76 1 42 34 76 77 76 42 0 75-34 75-76-1-43-35-76-77-76z" horiz-adv-x="1000" />

<glyph glyph-name="hyperlink" unicode="&#xe811;" d="M310 459l-94-94-150-151a211 211 0 0 1 298-298l151 150a252 252 0 0 0-61-6l-117-117a173 173 0 0 0-244 244l117 117 42 42 85 86 82 81a172 172 0 0 0 293-141l39 39a211 211 0 0 1-190 190 213 213 0 0 1-57-2 210 210 0 0 1-112-59z m-61-170a211 211 0 0 1 190-190 213 213 0 0 1 57 2 210 210 0 0 1 113 59l81 82 94 93 150 151a211 211 0 0 1-298 298l-151-150a250 250 0 0 0 61 6l117 117a173 173 0 0 0 244-244l-117-117-41-42-86-85-81-82a172 172 0 0 0-293 142z" horiz-adv-x="1000" />

<glyph glyph-name="channel" unicode="&#xe812;" d="M631 492c56 0 101 57 101 126s-45 125-101 125-101-56-101-125 45-126 101-126z m145-33c-1 0-43 6-60 6v-1l44-37-53-26 25-41-67-146-10 207 9 8-12 41h-42l-12-41 9-8-10-207-67 146 25 41-52 26 43 38v1c-18-1-37-3-55-7h-1c-32-5-57-22-61-56l-10-120c51-41 112-66 177-72 11-1 23-2 35-2h0c12 0 23 1 35 2 66 7 129 32 180 74l-9 118c-3 33-20 50-61 56z m485 50c-15 52-69 83-121 67-34-9-59-36-68-69h-78c-10 192-168 343-362 343-192 0-349-150-361-339h-77c-15 52-69 83-122 69-52-14-83-68-69-121 15-53 69-84 122-69 33 9 59 35 69 69h78c3-48 16-91 36-132l-70-40c-38 38-101 37-139-2-38-38-38-101 1-139 39-38 101-38 140 1 24 25 34 61 24 94l70 41c25-37 58-69 95-94l-41-72c-53 14-106-18-119-72-14-53 18-106 71-119s106 18 120 71c8 34-2 70-26 95l41 71c39-19 83-31 129-34v-84c-52-14-83-68-69-121 15-52 69-83 122-69 52 14 83 68 69 121-10 34-36 60-69 69v84c46 3 90 15 129 33l42-72c-38-39-37-101 2-139 39-38 101-37 139 2 38 39 37 101-2 139-25 24-60 33-94 24l-41 72c38 25 70 56 96 93l70-41c-13-53 19-106 72-120s106 19 119 72-18 106-71 119c-34 9-70-1-94-26l-70 41c20 39 33 84 38 130h79c15-52 69-82 121-67s84 69 69 121z m-1162-71c-26 0-47 21-47 46s21 46 47 46 46-21 46-46-20-46-46-46z m94-261c-22-13-51-5-63 16s-5 51 17 64 50 5 63-17 5-51-17-63z m212-179c-13-22-41-29-63-17-22 13-30 42-17 63s41 30 63 17c22-12 30-41 17-63z m470 62c22 13 51 6 64-16s5-51-17-64-51-5-63 17-5 50 16 63z m179 178c13 22 41 30 63 17 22-13 30-41 17-63-13-22-41-30-63-17s-30 41-17 63z m-376-289c0-25-21-46-47-46s-46 21-46 46 21 47 46 47c26 0 47-21 47-47z m-46 225c-173 0-315 141-315 314 0 173 141 314 315 314 174 0 314-141 314-314 1-173-140-314-314-314z m535 262c-26 0-47 21-47 46s21 47 47 47 46-22 46-47c0-26-21-46-46-46z" horiz-adv-x="1265" />

<glyph glyph-name="list" unicode="&#xe813;" d="M760 646h-283a20 20 0 0 1 0-40h283a20 20 0 0 1 0 40z m20-176a20 20 0 0 1-20 20h-283a20 20 0 0 1 0-40h283a20 20 0 0 1 20 20z m-46-161a20 20 0 0 1-20 20h-237a20 20 0 0 1 0-40h237a20 20 0 0 1 20 20z m-425 311l51-40 78 69a20 20 0 0 1-27 30l-52-47-26 20a20 20 0 1 1-24-31z m0-164l51-40 78 69a20 20 0 1 1-27 30l-52-47-26 19a20 20 0 0 1-24-31z m0-155l51-40 78 69a20 20 0 1 1-27 29l-52-47-26 20a20 20 0 1 1-24-31z m651-17l-41 57a27 27 0 0 1-37 6l-354-256 71-100 355 256a27 27 0 0 1 6 37z m-496-337l123 36-71 99-72-108a18 18 0 0 1 20-27z m368 2a60 60 0 0 0-60-59h-590a60 60 0 0 0-59 59v40h24a35 35 0 1 1 0 39h-24v131h24a35 35 0 1 1 0 40h-24v131h24a35 35 0 1 1 0 40h-24v131h24a35 35 0 1 1 0 40h-24v131h24a35 35 0 1 1 0 39h-24v40a60 60 0 0 0 59 59h590a60 60 0 0 0 60-59v-408l35 25c1 1 3 2 4 3v380a100 100 0 0 1-99 99h-590a100 100 0 0 1-99-99v-40h-63a20 20 0 0 1 0-39h63v-131h-63a20 20 0 0 1 0-40h63v-131h-63a20 20 0 1 1 0-40h63v-131h-63a20 20 0 1 1 0-40h63v-131h-63a20 20 0 1 1 0-39h63v-40a100 100 0 0 1 99-99h590a100 100 0 0 1 99 99v206l-39-28z" horiz-adv-x="965" />

<glyph glyph-name="attributes" unicode="&#xe814;" d="M449 850h-411c-21 0-38-17-38-38v-411c0-21 17-38 38-38h411c21 0 38 17 38 38v411c0 21-17 38-38 38z m0-513h-411c-21 0-38-17-38-38v-411c0-21 17-38 38-38h411c21 0 38 17 38 38v411c0 21-17 38-38 38z m513 0h-411c-21 0-38-17-38-38v-411c0-21 17-38 38-38h411c21 0 38 17 38 38v411c0 21-17 38-38 38z m0 513h-411c-21 0-38-17-38-38v-411c0-21 17-38 38-38h411c21 0 38 17 38 38v411c0 21-17 38-38 38z m-55-243c0-83-67-150-150-150-83 0-150 67-150 150 0 83 67 150 150 150 83 1 150-67 150-150 0 0 0 0 0 0z" horiz-adv-x="1000" />

<glyph glyph-name="top-locations" unicode="&#xe815;" d="M396 850c-219 0-396-177-396-396s396-604 396-604 395 386 395 604-176 396-395 396z m2-622c-131 0-238 107-238 239 0 132 107 239 239 239 132 0 239-107 239-239 0-132-108-239-240-239z" horiz-adv-x="791" />

<glyph glyph-name="slice" unicode="&#xe816;" d="M821 377l179 197-250 276-300-331-25 27-25-27 50-56-450-496 500 56 109 265 91-100 25 27-25 28 121 133m-71 419l200-221-275-303-200 220z m-275-359l108-117-38-94-289-31z m-381-419l121 134 313 34-52-125z m-94-128h106v-39h-106z m212 0h106v-39h-106z m212 0h106v-39h-106z m212 0h106v-39h-106z" horiz-adv-x="1000" />

<glyph glyph-name="offer" unicode="&#xe817;" d="M704 570c67 58 75 159 18 225-57 67-158 75-225 18-15-13-28-29-37-47-41 78-137 108-216 67-79-40-108-137-67-215 10-18 22-35 38-48h-215v-240h40v-480h840v480h40v240h-216z m-264-680h-360v440h360v-440z m0 480h-400v160h400v-160z m0 200h-120c-66 0-120 54-120 120s54 120 120 120 120-53 120-120v-120z m40 120c0 67 54 120 120 120s120-53 120-120-54-120-120-120h-120v120z m360-800h-360v440h360v-440z m40 480h-400v160h400v-160z" horiz-adv-x="920" />

<glyph glyph-name="offer-expiry-note" unicode="&#xe818;" d="M1274 391l-15-15-15 15 15 15-15 15-137-136 16-15 91 91 15-15-104-104h-245v88h40v241h-216c67 57 74 158 17 225s-159 74-225 16c-15-13-27-28-36-46-42 78-138 108-216 65-78-42-107-138-65-216 9-17 22-32 36-45h-215v-240h40v-480h840v28h348v347l107 106-61 60z m-834-500h-360v439h360v-439z m0 479h-400v160h400v-160z m0 201h-120c-66 0-120 53-120 120 2 66 57 118 123 117 64-2 115-53 117-117v-120z m40 119c0 67 54 120 120 120s121-53 121-120-55-119-121-119h-120v119z m0-160h400v-160h-400v160z m279-639h-279v439h360v-88h-81v-351z m449 9h-428v321h324l-102-101-30-91 91 30 145 144v-303z m-160 174l-30 30 257 257 30-30-257-257z m-226-2h128v-21h-128z m0 85h150v-21h-150z m0-171h342v-22h-342z" horiz-adv-x="1335" />

<glyph glyph-name="offer-pool" unicode="&#xe819;" d="M1481 398c48 41 53 113 11 161-41 48-113 53-161 12-11-9-20-21-26-33-30 56-99 77-155 47-9-5-18-10-24-17v2h-215c66 57 74 158 16 225s-158 74-225 16c-15-13-27-28-36-45-41 78-138 107-216 65-78-42-107-139-65-217 9-17 22-32 37-45h-216v-239h39v-36c-4 0-9 1-13 1-22 0-43-13-53-33-11 20-32 33-55 33-35-1-62-29-61-64 0-18 8-35 21-46h-84v-95h15v-190h230v-51h840v29h522v347h28v173h-154z m-1310-481h-140v174h140v-174z m0 189h-156v63h156v-63z m0 127v-47h-47c-26 0-46 21-46 47-1 26 19 47 45 48 26 1 47-18 48-44 0-2 0-3 0-4z m74-316h-59v174h59v-174z m0 189h-59v63h59v-63z m0 81c-4-1-9-1-13-1h-46v47c0 26 22 46 47 45 4 0 8-1 12-1v-90z m160 504c2 66 57 118 123 117 64-2 115-53 117-117v-120h-119c-67 0-121 53-121 120z m-160-161h400v-160h-400v160z m401-639h-360v439h360v-439z m479 509c1-1 2-2 3-2l-3-4v6z m-439 290c0 67 53 120 120 120s120-53 120-120-53-120-120-120h-120v120z m360-799h-360v439h360v-439z m-360 479v160h399v-160h-399z m604-462h-205v317h205v-317z m0 346h-205v76h40v38h165v-114z m0 144h-86c-35 0-65 20-78 50v72c13 29 43 50 78 50 48 0 86-39 86-86v-86z m115 172c48 0 87-38 87-86 0-48-38-86-86-86h-86v86h-1c0 48 38 86 86 86z m173-662h-260v317h260v-317z m29 346h-288v114h288v-114z" horiz-adv-x="1635" />

<glyph glyph-name="offer-pool-detail" unicode="&#xe81a;" d="M1440 467v48h-25v-48h-73v48h-24v-48h-73v48h-25v-48h-73v48h-21v55h-215c66 57 74 158 16 225s-158 74-225 16c-15-13-27-28-36-45-41 78-138 107-216 65-78-42-107-139-65-217 9-17 22-32 37-45h-216v-239h39v-36c-4 0-9 1-13 1-22 0-43-13-53-33-11 20-32 33-55 33-35-1-62-29-61-64 0-18 8-35 21-46h-84v-95h15v-190h230v-51h840v29h452v589h-97z m-1269-550h-140v174h140v-174z m0 189h-156v63h156v-63z m0 127v-47h-47c-26 0-46 21-46 47-1 26 19 47 45 48 26 1 47-18 48-44 0-2 0-3 0-4z m74-316h-59v174h59v-174z m0 190h-59v63h59v-63z m0 80c-4-1-9-1-13-1h-46v47c0 26 22 46 47 45 4 0 8-1 12-1v-90z m160 504c2 66 57 118 123 117 64-2 115-53 117-117v-120h-119c-67 0-121 53-121 120z m-160-161h400v-160h-400v160z m401-639h-360v439h360v-439z m40 799c0 67 53 120 120 120s120-53 120-120-53-120-120-120h-120v120z m360-799h-360v439h360v-439z m-360 479v160h399v-160h-399z m399-466v426h40v88h21v24l73 1v-24h24v24h73v-24h24v24h74v-24h24v24h73v-539h-426z m36 416h319v-25h-319z m0-98h319v-24h-319z m0-98h319v-25h-319z m0-98h147v-24h-147z" horiz-adv-x="1537" />

<glyph glyph-name="public-description" unicode="&#xe81b;" d="M1132 602h-112v56h-28v-56h-84v56h-28v-56h-85v56h-28v-56h-58c1 27-1 51-9 62-33 46-36 87-84 105-50 18 9 81 9 81s-209-6-254-81c-26-44-39-59-71-105-11-15-11-50-6-86-2 1-4 1-6 0-15-4-18-43-6-88 10-43 29-75 44-75 8-50 24-96 49-121 62-64-62-127-62-127l-44-18c-61-26-168-75-206-109-55-48-63-190-63-190h1000s-2 35-11 77h143v675z m-1089-715v1c7 49 22 103 45 123 25 21 98 59 196 102l44 18c17 8 92 49 103 111 2 19 0 49-28 78-11 11-27 38-38 102l-6 31-21 1c-9 14-15 29-18 45-3 11-4 23-6 34l25-6-7 56c-5 39-1 57 0 61 9 12 16 22 23 32 18 24 34 49 50 74 16 28 87 47 154 56-2-9-2-19 0-28 6-21 22-39 43-45 18-7 25-17 39-45 8-16 17-31 27-46 0 0 6-15 1-61l-5-52 23 5c-1-12-3-24-6-36-4-16-9-31-18-45l-21-1-6-31c-11-64-27-90-38-102-28-29-31-59-28-78 10-62 86-102 100-110 2-2 42-18 46-20 98-42 172-80 196-102 23-19 38-74 45-122h-914z m1063 68h-123c-10 33-24 66-45 85-10 8-24 18-41 27h97v28h-150c-39 21-82 39-113 53l-44 18s-10 5-22 14h355v28h-389c-22 23-35 54-6 84h396v28h-376c12 24 21 53 27 85h348v28h-324c9 14 18 34 23 57 9 38 8 72-1 84h49v-28h28v28h85v-28h28v28h85v-28h28v28h85v-619z" horiz-adv-x="1133" />

<glyph glyph-name="public-restriction" unicode="&#xe81c;" d="M928 243v35c0 89-71 161-160 161-89 0-161-72-161-161v-35h-9c-26 22-50 56-17 90 23 24 37 66 46 113 13 0 32 30 41 70 10 42 8 79-7 82h-4c3 34 2 66-7 81-31 43-33 81-78 97-45 15 8 74 8 74s-194-5-236-75c-24-41-36-54-65-97-10-14-10-46-6-80-2 0-4 0-5 0-14-4-17-41-7-83 10-40 28-69 42-69 7-47 21-90 45-114 58-59-58-117-58-117l-40-17c-56-24-156-69-192-100-51-45-58-177-58-177h536v-72h464v394h-72z m-398 42c3-15 9-30 19-42h-13v-286h-496c6 45 21 96 42 114 23 20 91 55 182 95l40 16c16 8 86 46 95 103 3 18 1 46-25 72-11 11-25 36-35 95l-6 29-20 1c-8 13-13 27-16 42-3 11-5 21-5 32l23-6-7 52c-4 36-1 53 0 56 8 11 15 21 22 30 16 22 28 38 46 69 16 26 81 44 143 53-2-9-2-18 1-27 5-20 20-36 39-41 18-6 23-16 37-42 7-14 15-29 24-42 0 0 5-13 2-57l-5-48 21 4c0-11-2-22-5-33-3-15-8-30-16-43h-21l-5-29c-11-59-25-84-35-95-28-26-29-54-26-72z m113-7c-2 69 52 127 122 128 69 2 127-52 128-122v-41h-250v35z m321-393h-392v323h392v-323z m-214 147v-75h36v75c27 11 43 41 32 68-10 28-40 43-68 33-21-7-35-28-35-50-1-24 14-44 35-51z" horiz-adv-x="1000" />

<glyph glyph-name="reusable-snippets" unicode="&#xe81d;" d="M1008 61l-196 360-45-24 197-360c16-30 5-67-25-83-9-6-19-8-29-8h-242l20 46-168-71 168-71-20 45h240c62 0 113 50 113 112 0 19-5 38-13 54z m-443 706l120-219-49-5 142-113-18 181-30-39-121 220c-30 54-98 74-152 45-19-11-34-26-45-45l-188-347 44-23 189 345c16 30 53 41 83 25 11-6 19-14 25-25z m-514-760c0 11 2 20 7 29l125 230 31-39 18 181-142-112 49-5-126-230c-29-54-9-122 45-152 17-9 35-14 54-14h384v51h-383c-35-1-62 27-62 61z m313 292v-23c26-1 29-16 29-27 0-9-1-19-2-29-2-9-3-19-3-29 0-38 23-51 55-51h10v26h-7c-17 0-25 10-25 29 0 8 1 16 2 23 1 8 3 17 3 27 0 26-11 37-30 42v0c18 5 30 16 30 41 0 10-2 19-3 27-1 8-2 16-2 23 0 18 7 29 25 29h7v26h-10c-32 0-55-15-55-49 0-10 1-21 3-30 1-10 2-20 2-30-1-10-4-25-29-25z m293-23v23c-25 0-28 15-28 26 0 10 1 20 2 30 2 9 2 20 2 29 0 35-22 50-54 50h-10v-27h6c19 0 26-11 26-29 0-7-1-15-3-23-1-9-2-18-2-26 0-26 11-36 29-41v-1c-18-4-29-15-29-41 0-9 1-18 2-27 2-8 3-16 3-23 0-19-7-29-26-29h-6v-26h10c32 0 54 13 54 50 0 10-1 20-2 30-1 10-2 20-2 29 0 11 3 26 28 26z" horiz-adv-x="1021" />

<glyph glyph-name="sent-icon" unicode="&#xe81e;" d="M452 302l125-452 423 1000-1000-425z m131-333l-93 344 416 417z m-121 371l-344 93 761 324z" horiz-adv-x="1000" />

<glyph glyph-name="short-description" unicode="&#xe81f;" d="M476 374c21 20 21 54 0 74-20 21-248 174-248 174s153-227 174-248c21-21 54-21 74 0z m430 0v44h-21v-44h-8c10 124-32 251-126 346-79 79-184 125-294 129v1h-35v-246h35v210c222-10 395-199 385-422 0-6 0-12-1-18h-19v43h-21v-43h-64v43h-21v-43h-64v43h-21v-43h-85v-353c-40-11-82-16-125-14-223 11-396 199-385 422 4 100 46 196 118 267l-25 25c-173-171-173-449-2-622 113-113 273-152 419-116v-134h445v525h-85z m65-502h-404v480h64v-22h21v22h64v-22h21v22h64v-22h21v22h64v-22h21v22h64v-480z m-341 371h276v-22h-276z m0-88h276v-21h-276z m0-87h276v-21h-276z m0-87h127v-22h-127z" horiz-adv-x="991" />

<glyph glyph-name="text-box" unicode="&#xe820;" d="M1000 658v192h-192v-77h-616v77h-192v-192h77v-616h-77v-192h192v77h616v-77h192v192h-77v616h77z m-962 38v116h116v-116h-116z m116-808h-116v116h116v-116z m654 78h-616v77h-76v615h76v77h616v-77h76v-614h-76v-78z m153 38v-116h-115v115l115 1z m-115 692v116h116v-116h-116z m-576-230h38s0 76 38 76h116v-346s0-38-39-38h-38v-38h231v38h-39c-38 0-38 38-38 38v346h116c38 0 38-76 38-76h38v115h-461v-115z" horiz-adv-x="1000" />

<glyph glyph-name="public-name" unicode="&#xe821;" d="M709 155c-24 21-91 52-129 68l-27 12s-79 40-39 79c15 16 25 45 30 77 10 0 22 20 28 47 7 28 5 53-5 55h-2c2 23 2 45-5 54-20 29-22 55-53 66-31 12 6 52 6 52s-132-4-160-52c-16-28-24-36-45-66-7-9-7-31-3-54h-4c-9-2-11-27-4-55 7-27 19-47 28-47 6-32 14-61 30-77 39-40-39-79-39-79l-27-12c-38-16-106-47-130-67-34-30-39-120-39-120h629c0-1-5 89-40 119z m-534-18c16 14 62 38 124 65l27 11c10 5 58 31 64 70 3 18-4 36-17 48-7 7-18 25-25 65l-3 19h-13c-6 9-10 18-12 29-1 7-2 14-3 21l16-4-5 36c-2 24-1 35 0 38l15 20c11 15 22 30 31 46 11 18 55 30 97 36-1-6-1-11 0-18 3-14 14-24 27-28 11-5 15-11 24-28 5-11 11-20 17-29 0 0 3-9 1-38l-4-33 14 2c-1-7-2-14-3-22-3-11-6-20-12-29h-13l-3-19c-7-40-18-57-25-65-14-12-20-30-17-48 6-39 54-65 63-69l28-12c62-26 108-51 124-64 14-12 23-47 28-76h-574c5 29 15 64 29 76z m616 452h404v-44h-404z m0-145h404v-43h-404z m0-145h404v-43h-404z m0-144h265v-44h-265z m-791 695v-1000h1314v1000h-1314z m1258-943h-1201v886h1201v-886z" horiz-adv-x="1314" />

<glyph glyph-name="crop" unicode="&#xe822;" d="M179 627v-560c0-37 4-42 40-42h562v-173h47v171h172v47h-173a123 123 0 0 0 0 15v539a42 42 0 0 0 12 25c42 45 128 128 128 128l-34 31s-81-79-120-120a46 46 0 0 0-36-15h-552v177h-47v-177h-178v-46z m48 0h511l-511-521z m552-555h-512l512 520z" horiz-adv-x="1000" />

<glyph glyph-name="refresh" unicode="&#xe823;" d="M1247 616a25 25 0 0 1-25 25 25 25 0 0 1-20-10l-104-168a500 500 0 0 1-960 46 25 25 0 0 1 47-15 450 450 0 0 0 867-58l-179 131a25 25 0 0 1-16 4 25 25 0 0 1-25-25 25 25 0 0 1 10-19l243-177 158 256a25 25 0 0 1 4 10z m-156-393a25 25 0 0 1-30-15 450 450 0 0 0-866 57l180-130a25 25 0 0 1 14-5 25 25 0 0 1 25 25 25 25 0 0 1-10 19l-243 176-158-255a25 25 0 0 1-3-12 25 25 0 0 1 25-25 25 25 0 0 1 20 13l104 167a500 500 0 0 1 961-45 25 25 0 0 1-19 30z" horiz-adv-x="1247" />

<glyph glyph-name="shapes" unicode="&#xe824;" d="M291 216a289 289 0 1 0 289 290 290 290 0 0 0-289-290z m0 532a243 243 0 1 1 242-242 243 243 0 0 1-242 242z m725-534h-580l580 636z m-474 47h427v469z m472-411h-1014v318h1014z m-968 47h923v224h-922z" horiz-adv-x="1016" />

<glyph glyph-name="upload" unicode="&#xe825;" d="M0 142v-292h948v292h-42v-250h-865v250z m494-42v675l193-177 27 31-240 221-241-221 28-31 192 177v-675h41z" horiz-adv-x="948" />

<glyph glyph-name="regenerate" unicode="&#xe826;" d="M1199 632l-103-168a500 500 0 0 1-961 44l47-16a450 450 0 0 0 868-56l-180 131-30-40 243-177 159 255z m-798-458l-243 176-158-255 42-26 104 167a500 500 0 0 1 961-43l-48 16a450 450 0 0 0-867 55l180-131z" horiz-adv-x="1242" />

<glyph glyph-name="delete" unicode="&#xe827;" d="M926 733h-284a179 179 0 0 1-337 0h-283a22 22 0 0 1 0-44h62a22 22 0 0 1-12-20l45-755a68 68 0 0 1 62-62h588a66 66 0 0 1 62 62l45 755a22 22 0 0 1-12 20h62a22 22 0 0 1 0 44z m-452 74a137 137 0 0 0 120-74h-241a137 137 0 0 0 121 74z m360-136l-46-752a24 24 0 0 0-21-23h-587a24 24 0 0 0-22 23l-44 752a21 21 0 0 1-13 18h745a21 21 0 0 1-12-18z m-524-661a22 22 0 0 1 21 23l-30 518a22 22 0 1 1-43 0l29-518a22 22 0 0 1 23-23z m328 0a22 22 0 0 1 21 20l29 519a22 22 0 0 1-43 0l-29-519a22 22 0 0 1 22-20z m-164 0a22 22 0 0 1 23 21v519a22 22 0 1 1-44 0v-519a22 22 0 0 1 21-21z" horiz-adv-x="947" />

<glyph glyph-name="edit" unicode="&#xe828;" d="M988 612a40 40 0 0 1 0 57l-169 169a40 40 0 0 1-57 0l-762-762v-225h226z m-198 198l170-169-113-113-170 169z m-140-141l169-169-565-565-170 171z m-610-779v170l17 16 169-169-17-17z" horiz-adv-x="1000" />

<glyph glyph-name="undo" unicode="&#xe829;" d="M1064-90h-942v-60h942a392 392 0 1 1 0 781h-942l187 175-41 44-268-246 268-247 41 44-187 173h942a331 331 0 1 0 0-664z" horiz-adv-x="1459" />

<glyph glyph-name="redo" unicode="&#xe82a;" d="M1191 357l268 247-268 246-41-44 187-175h-942a392 392 0 1 1 0-783h942v60h-942a331 331 0 1 0 0 663h942l-187-170z" horiz-adv-x="1459" />
</font>
</defs>
</svg>
